<svg width="332" height="64" viewBox="0 0 332 64" fill="none" xmlns="http://www.w3.org/2000/svg">
<path d="M72.4243 0.37891C51.468 1.89452 32.8726 6.38308 19.1155 13.2616C10.6048 17.517 4.30913 22.8508 1.6568 28.068C-2.8026 36.9285 1.86083 46.0222 14.1898 52.5802L16.1717 53.6295L14.627 52.2304C12.6741 50.5108 10.9545 48.2082 9.99268 46.0514C8.97255 43.8071 8.73938 39.61 9.46804 37.0743C11.6832 29.3213 20.1356 21.2769 32.8435 14.7773C47.3001 7.43235 66.9448 2.1277 84.8115 0.816105C92.9142 0.204029 92.9725 3.8147e-06 85.103 3.8147e-06C81.0225 3.8147e-06 75.3098 0.174885 72.4243 0.37891Z" fill="#005AAA"/>
<path d="M142.638 12.6496C146.544 16.526 148.03 20.8689 147.127 25.5614C144.882 36.9285 129.464 48.4997 106.38 56.1069C94.8381 59.9251 80.3232 62.694 68.1983 63.3935C65.4002 63.5392 64.7881 63.6558 65.5751 63.8307C67.0033 64.1513 84.6368 63.5684 89.6209 63.0438C108.712 60.9744 123.897 57.0979 136.255 51.0937C145.407 46.6343 151.907 41.2131 154.617 35.8501C155.842 33.4018 156.308 31.4782 156.308 28.9424C156.25 22.6176 151.994 17.0798 143.163 11.8626C141.851 11.0756 140.685 10.4344 140.598 10.4344C140.511 10.4344 141.414 11.4254 142.638 12.6496Z" fill="#D81F30"/>
<path d="M204.72 17.8376C202.622 18.3331 201.485 18.8577 200.61 19.8196C199.998 20.4899 199.182 23.2589 198.483 27.1353C198.133 29.0007 198.162 29.2047 198.687 29.9042C199.561 31.0993 201.631 31.6822 205.041 31.6822C209.879 31.7113 212.648 30.6329 213.464 28.4178C214.134 26.669 215.096 22.0056 215.096 20.6648C215.096 18.6829 213.377 17.8085 208.975 17.5753C207.431 17.4879 205.828 17.5753 204.72 17.8376ZM208.655 19.8779C208.888 20.1693 208.742 21.3643 207.984 24.7162C206.993 29.2047 206.585 30.1083 205.507 29.9042C204.516 29.7002 204.487 28.9424 205.332 25.1242C206.236 20.9271 206.527 20.0236 207.023 19.703C207.576 19.3532 208.276 19.4407 208.655 19.8779Z" fill="#005AAA"/>
<path d="M172.018 24.5996L172.106 31.449H175.982C178.081 31.449 179.946 31.4199 180.092 31.4199C180.208 31.4199 181.024 29.9043 181.899 28.068C182.773 26.2318 183.619 24.7162 183.793 24.7162C183.997 24.7162 184.172 25.882 184.289 27.9514C184.376 29.7294 184.522 31.245 184.58 31.3324C184.697 31.4199 190.322 31.5073 192.537 31.4199C192.712 31.4199 193.412 30.1957 194.053 28.7092C197.521 20.9271 198.716 18.1291 198.571 17.9251C198.512 17.8085 197.142 17.721 195.569 17.721H192.654L191.838 19.3824C191.371 20.3151 190.555 22.2387 190.031 23.6961C189.011 26.465 188.428 27.5434 188.195 27.1353C188.136 27.0188 188.253 24.9494 188.457 22.5593C188.661 20.1402 188.777 18.0708 188.69 17.9542C188.428 17.5462 182.278 17.6627 181.928 18.0708C181.782 18.2748 180.937 20.0819 180.121 22.093C177.614 28.0972 177.498 28.1263 177.964 22.3262C178.139 20.0236 178.226 18.0708 178.168 17.9251C178.11 17.8085 176.682 17.721 174.991 17.721H171.96L172.018 24.5996Z" fill="#005AAA"/>
<path d="M219.06 17.9542C218.885 18.2457 218.244 21.0437 217.107 26.3192C216.641 28.5635 216.175 30.6329 216.087 30.8952C215.942 31.3616 216.233 31.4199 219.235 31.4199H222.558L223.112 28.6218C223.811 25.0951 224.307 24.483 225.56 25.5031L226.172 26.0278L225.589 28.6218C225.268 30.05 225.064 31.2741 225.123 31.3616C225.356 31.5948 230.602 31.4782 230.835 31.2159C231.214 30.8369 232.03 26.3192 231.826 25.7946C231.739 25.5323 231.214 25.1825 230.661 25.0077C229.407 24.5996 229.407 24.2207 230.631 23.9875C232.351 23.6378 233.167 22.5302 233.167 20.5191C233.167 18.8286 232.176 18.2457 228.883 17.9834C225.123 17.6628 219.235 17.6628 219.06 17.9542ZM226.726 20.2568C227.28 20.7231 227.309 20.898 227.046 21.8307C226.842 22.5885 226.493 22.9966 225.881 23.2589C224.656 23.7835 224.336 23.4338 224.569 21.8307C224.89 19.7322 225.531 19.2658 226.726 20.2568Z" fill="#005AAA"/>
<path d="M236.985 18.3623C236.606 19.295 234.07 31.2159 234.187 31.4199C234.245 31.5073 235.702 31.5073 237.422 31.4199L240.57 31.2741L240.774 30.3998C240.89 29.9043 241.123 28.7093 241.327 27.6891C241.561 26.6107 241.823 25.9112 242.027 25.9695C242.202 26.0278 242.639 27.2228 242.989 28.6218C243.338 30.0208 243.659 31.2159 243.717 31.2741C243.951 31.5073 250.217 31.449 250.159 31.2159C250.13 31.0993 249.576 29.4088 248.935 27.5143C247.914 24.5996 247.798 23.9584 248.119 23.5795C248.323 23.3172 249.43 21.9764 250.596 20.6065C251.762 19.2075 252.694 18.0125 252.694 17.8959C252.694 17.8085 251.412 17.7211 249.838 17.7211H246.982L245.116 20.1985C242.493 23.6669 242.143 23.7252 242.93 20.49C243.63 17.5462 243.805 17.7211 240.307 17.7211C237.393 17.7211 237.218 17.7502 236.985 18.3623Z" fill="#005AAA"/>
<path d="M257.709 24.7453L257.796 31.449H261.527C263.567 31.449 265.374 31.449 265.52 31.4199C265.695 31.4199 266.569 29.9043 267.473 28.068C268.376 26.2318 269.28 24.7162 269.513 24.7162C269.804 24.7162 269.892 25.3574 269.892 27.456C269.892 31.7988 269.659 31.5948 274.468 31.4782L278.519 31.3907L279.364 29.4379C280.21 27.4268 280.472 26.873 282.949 21.2769L284.407 18.0125H281.288H278.169L277.47 19.3824C277.091 20.1693 276.246 22.1513 275.575 23.8127C274.264 27.1936 273.477 28.068 273.768 25.7655C273.885 25.0368 274.06 22.9674 274.147 21.2186L274.351 18.0125H270.941H267.531L266.627 19.9653C266.132 21.0729 265.316 22.9966 264.82 24.2498C263.684 27.1062 263.042 27.5434 263.276 25.27C263.392 24.3956 263.538 22.4136 263.655 20.8397L263.829 18.0125H260.74H257.65L257.709 24.7453Z" fill="#005AAA"/>
<path d="M286.068 18.6537C284.873 23.9584 283.328 31.2741 283.386 31.3324C283.59 31.5365 294.462 31.4199 294.666 31.2158C294.783 31.0993 294.987 30.5455 295.103 30.0208L295.307 29.0882H292.917C291.314 29.0882 290.527 28.9716 290.44 28.7093C290.352 28.5344 290.469 27.7766 290.702 27.0479L291.081 25.7363L293.092 25.6489C295.307 25.5614 295.395 25.5031 295.657 24.3664L295.832 23.5795L293.879 23.492C291.985 23.4046 291.897 23.3755 291.81 22.6468C291.751 22.2387 291.868 21.5684 292.014 21.1312C292.305 20.3734 292.393 20.3442 294.52 20.3442C296.036 20.3442 296.765 20.2276 296.823 19.9653C296.91 19.7904 297.027 19.2658 297.114 18.7995L297.289 18.0125H291.751C286.272 18.0125 286.214 18.0125 286.068 18.6537Z" fill="#005AAA"/>
<path d="M300.99 20.2568C300.436 21.5101 299.037 24.483 297.9 26.873C296.764 29.2339 295.831 31.245 295.831 31.3033C295.831 31.3616 297.318 31.4199 299.154 31.4199H302.476L302.68 30.5455C303.001 29.1464 304.604 28.3595 305.712 29.059C305.945 29.2047 306.12 29.8168 306.149 30.3997L306.178 31.5073L309.238 31.449C310.9 31.4199 312.328 31.3324 312.415 31.2741C312.532 31.1284 311.92 20.8106 311.687 19.0909L311.512 18.0125H306.79H302.039L300.99 20.2568ZM306.615 23.7835C306.615 26.5524 306.382 27.0479 305.187 27.0479C303.613 27.0479 303.584 26.7273 304.896 23.9001C305.566 22.4136 306.236 21.2186 306.353 21.2186C306.499 21.2186 306.615 22.3845 306.615 23.7835Z" fill="#005AAA"/>
<path d="M316.963 18.9452C316.876 19.4698 316.584 20.694 316.38 21.6558C316.147 22.6176 315.622 24.9785 315.214 26.9022C314.806 28.8258 314.398 30.6329 314.311 30.9244C314.165 31.3907 314.398 31.4199 317.429 31.3616L320.694 31.2741L321.218 28.9424C321.539 27.66 321.83 26.3192 321.918 25.9403C322.034 25.4448 322.297 25.2991 322.938 25.2991C324.279 25.2991 324.424 25.9695 323.783 28.7675C323.463 30.1083 323.259 31.2741 323.346 31.3324C323.579 31.5947 328.796 31.5073 329.059 31.245C329.175 31.0992 329.525 29.9042 329.787 28.5635C330.225 26.3192 330.225 26.0861 329.787 25.5906C329.525 25.2991 328.913 24.9785 328.418 24.891C327.31 24.687 327.572 24.3664 329.292 23.8709C330.312 23.5795 330.633 23.3171 330.982 22.4719C331.216 21.9181 331.39 20.9854 331.332 20.4025C331.274 19.5572 331.041 19.2366 330.225 18.7411C329.292 18.2165 328.622 18.1582 323.171 18.0708L317.167 17.9833L316.963 18.9452ZM325.211 20.5482C325.853 21.889 324.395 23.9584 323.142 23.4629C322.559 23.2588 322.53 22.6759 322.967 21.1312C323.229 20.1985 323.375 20.0527 324.104 20.0527C324.629 20.0527 325.066 20.2568 325.211 20.5482Z" fill="#005AAA"/>
<path d="M29.8706 22.7342C29.7832 23.1131 29.142 27.6017 28.3842 32.7315C27.6555 37.8612 26.9851 42.3498 26.8977 42.6996L26.752 43.3699H33.4556H40.1885L40.888 42.4081C41.2669 41.9126 42.8699 39.4643 44.4438 37.016C46.0469 34.5677 47.4751 32.6149 47.6208 32.7023C47.7957 32.7606 47.9123 32.9063 47.8831 33.0521C47.6791 34.2471 47.2127 40.0472 47.2127 41.5337V43.3699L53.9747 43.3116L60.7075 43.2242L61.8734 41.3297C64.2051 37.5698 71.2294 25.9986 72.1912 24.3373C73.3862 22.3262 73.8817 22.1805 73.6194 23.9001C73.3279 25.6489 71.7249 36.6662 71.3751 39.1437C71.2294 40.2512 71.0545 41.6794 70.9671 42.2624L70.8213 43.3699H77.4667H84.1413L86.6187 39.4934C87.9886 37.3949 89.5333 34.9466 90.0288 34.1014C91.049 32.4692 92.0108 32.0028 91.6902 33.3144C91.3987 34.4511 90.9615 39.4934 90.9324 41.5628V43.3699L97.6652 43.3116L104.398 43.2242L110.635 32.8772C114.045 27.1936 116.873 22.4428 116.873 22.297C116.873 22.1805 114.599 22.093 111.83 22.093H106.788L104.427 25.9403C103.116 28.068 101.221 31.3616 100.23 33.227C97.8109 37.8321 97.4903 37.8321 98.5104 33.2853C98.831 31.8571 99.2391 30.1083 99.3848 29.3796C99.5306 28.651 99.9095 26.8439 100.259 25.3283C100.58 23.8127 100.842 22.4719 100.842 22.3262C100.842 22.2096 98.3647 22.093 95.3335 22.093H89.854L86.881 26.9022C85.2488 29.5545 83.4417 32.7023 82.8588 33.8973C81.7804 36.0833 80.7603 36.9286 81.1683 35.2672C81.4306 34.2471 82.3633 30.05 83.2086 26.1735C83.5583 24.483 83.9081 22.9091 83.9664 22.6759C84.083 22.297 82.7714 22.2388 73.6777 22.1513L63.2724 22.093L62.1357 23.7544C60.7367 25.8529 57.2974 31.7405 55.8109 34.5385C54.6742 36.7245 54.033 37.2783 54.2662 35.8501C54.4119 35.1215 55.6361 29.4962 56.2481 26.9022C56.627 25.2991 57.1225 22.7051 57.1225 22.3845C57.1225 22.2096 54.9074 22.093 51.6138 22.093H46.076L43.7735 25.7946C42.491 27.864 40.8005 30.6912 39.9844 32.1485C37.3612 36.7828 37.507 36.5788 37.3904 36.025C37.303 35.7336 37.5361 34.422 37.8567 33.1104C38.1482 31.7696 38.6437 29.6419 38.906 28.3595C39.1683 27.0771 39.5764 25.2991 39.8095 24.4247C40.0427 23.5503 40.2176 22.6759 40.2176 22.4719C40.2176 22.1805 39.0809 22.093 35.117 22.093C30.0746 22.093 30.0164 22.093 29.8706 22.7342Z" fill="#005AAA"/>
<path d="M119.641 22.4428C119.583 22.6468 117.864 27.2228 115.823 32.5857C113.812 37.9487 112.093 42.583 112.005 42.8744C111.859 43.3408 112.18 43.3699 117.193 43.3116L122.527 43.2242L124.684 37.5406C128.91 26.3775 130.28 22.6468 130.28 22.3262C130.28 22.2096 127.919 22.093 125.034 22.093C121.07 22.093 119.729 22.1805 119.641 22.4428Z" fill="#D81F30"/>
<path d="M242.057 34.0139C239.521 34.422 238.326 35.2672 237.831 36.9577C237.335 38.7065 237.947 39.3477 241.561 40.6884C244.505 41.8251 245.059 42.4955 244.068 43.8945C243.543 44.6524 242.057 44.7689 241.795 44.0986C241.707 43.8654 241.707 43.2533 241.824 42.7578L241.999 41.8834L239.405 41.9709L236.811 42.0583V43.5156C236.811 44.9147 236.84 44.973 237.947 45.4976C239.375 46.168 243.281 46.4594 245.496 46.0222C248.848 45.4102 249.781 44.5358 249.781 42.0583C249.781 40.5719 249.431 40.2512 246.895 39.2894C243.164 37.8904 242.494 37.22 243.543 36.0542C244.476 35.0049 245.846 35.617 245.496 36.8994C245.35 37.5698 245.38 37.5698 247.915 37.4823L250.509 37.3949V36.229C250.509 35.1798 250.393 35.0049 249.489 34.5677C248.265 33.9556 244.214 33.6641 242.057 34.0139Z" fill="#D81F30"/>
<path d="M171.668 34.1305C171.668 34.3345 169.308 45.0021 169.162 45.4976C169.016 45.9639 169.22 46.0222 171.873 45.9348L174.729 45.8474L175.079 44.2443C175.283 43.3699 175.836 40.8633 176.332 38.6773C176.798 36.4913 177.206 34.5385 177.206 34.3637C177.206 34.1596 176.274 34.043 174.437 34.043C172.922 34.043 171.668 34.0722 171.668 34.1305Z" fill="#D81F30"/>
<path d="M182.686 34.6843C182.249 36.7245 180.354 45.0604 180.238 45.4976C180.092 45.9639 180.296 46.0222 182.482 45.9348L184.901 45.8474L185.397 43.3699C185.659 42 185.892 40.8342 185.921 40.7467C186.038 40.2512 186.796 41.7086 187.437 43.6031L188.195 45.8474L190.701 45.9348C193.12 46.0222 193.237 45.9931 193.354 45.3519C193.441 44.973 193.703 43.8362 193.936 42.787C194.578 40.1346 195.86 34.2762 195.86 34.1596C195.86 34.1013 194.898 34.043 193.703 34.043C192.275 34.043 191.43 34.1596 191.284 34.3928C191.168 34.5968 190.847 35.7335 190.614 36.9285C190.381 38.1235 190.031 39.1437 189.856 39.202C189.681 39.2603 189.098 38.1527 188.544 36.7537L187.524 34.1888L185.163 34.1013C182.919 34.0139 182.803 34.043 182.686 34.6843Z" fill="#D81F30"/>
<path d="M201.252 34.3928C201.106 34.9174 198.774 45.5559 198.774 45.8182C198.774 46.1097 208.976 46.0222 210.287 45.7016C212.036 45.2936 212.619 44.4192 213.464 40.7467C214.688 35.4712 214.513 34.9174 211.482 34.3637C208.976 33.8973 201.427 33.9265 201.252 34.3928ZM208.393 36.229C208.888 36.812 207.489 43.3408 206.731 43.8654C206.003 44.4192 204.895 44.3317 204.895 43.778C204.895 43.3116 206.236 36.9285 206.498 36.1416C206.673 35.6461 207.956 35.7044 208.393 36.229Z" fill="#D81F30"/>
<path d="M220.052 34.2471C220.052 34.3345 219.585 36.5205 219.031 39.0562C218.449 41.6211 218.07 43.9528 218.157 44.3026C218.274 44.6232 218.973 45.177 219.702 45.4976C221.538 46.3428 226.784 46.4011 228.825 45.6142C231.011 44.7689 231.273 44.3317 232.41 39.1145C232.993 36.5496 233.459 34.3637 233.459 34.2471C233.459 34.1305 232.206 34.043 230.69 34.043C228.067 34.043 227.921 34.0722 227.775 34.6843C227.688 35.0632 227.222 37.1617 226.755 39.406C226.26 41.6211 225.735 43.6905 225.56 43.982C225.24 44.6232 223.986 44.7398 223.753 44.1569C223.666 43.9237 223.928 42.3206 224.307 40.5719C225.152 36.6954 225.589 34.626 225.589 34.3054C225.589 34.1596 224.336 34.043 222.82 34.043C221.305 34.043 220.052 34.1305 220.052 34.2471Z" fill="#D81F30"/>
<path d="M255.61 34.3928C255.61 34.5968 255.522 35.0632 255.435 35.4129C255.26 36.0542 255.318 36.0833 256.863 36.0833C257.795 36.0833 258.524 36.229 258.582 36.4039C258.641 36.5788 258.262 38.6482 257.737 41.009C257.213 43.3408 256.775 45.4393 256.775 45.6142C256.775 45.9056 257.533 45.9931 259.544 45.9931C261.06 45.9931 262.313 45.9056 262.313 45.7599C262.313 45.2644 264.295 36.6954 264.47 36.4039C264.587 36.229 265.461 36.0833 266.423 36.0833C267.589 36.0833 268.142 35.9667 268.142 35.7044C268.142 35.5295 268.23 35.0632 268.317 34.6843L268.492 34.043H262.051C257.096 34.043 255.61 34.1305 255.61 34.3928Z" fill="#D81F30"/>
<path d="M271.699 39.5809C271.028 42.6121 270.446 45.2644 270.416 45.4684C270.358 45.7599 271.058 45.8765 273.127 45.9348L275.925 46.0222L276.479 43.3116C277.004 40.805 277.12 40.601 277.79 40.5136C279.044 40.3678 279.277 41.009 278.781 43.1076C278.082 46.168 277.965 46.0222 280.88 45.9348L283.416 45.8474L283.882 43.5739C284.436 41.0673 284.319 40.6884 282.862 40.1638L281.988 39.814L283.299 39.3186C284.727 38.7939 285.339 37.9487 285.339 36.4913C285.339 34.5968 283.474 34.043 277.033 34.043H272.923L271.699 39.5809ZM279.627 35.9667C280.18 36.1707 280.239 37.5115 279.714 38.211C279.539 38.5025 278.956 38.7648 278.49 38.7939C277.645 38.8522 277.616 38.7939 277.703 37.8321C277.907 36.025 278.432 35.5004 279.627 35.9667Z" fill="#D81F30"/>
<path d="M291.314 34.3928C291.11 34.9174 288.837 45.381 288.837 45.7016C288.837 45.8765 290.032 45.9931 291.577 45.9931H294.346L294.841 43.7197C295.103 42.4955 295.686 39.8723 296.124 37.9195C296.561 35.9376 296.852 34.2762 296.765 34.1888C296.677 34.1013 295.453 34.043 294.025 34.043C292.218 34.043 291.402 34.1596 291.314 34.3928Z" fill="#D81F30"/>
<path d="M302.885 36.5788C302.244 38.007 300.962 40.6884 300.087 42.5538L298.484 45.9931H301.37H304.226L304.78 44.8855C305.159 44.0694 305.509 43.778 306.121 43.7197C307.257 43.5739 307.782 44.0986 307.578 45.1478L307.432 45.9931H310.376H313.349L313.203 45.0313C313.116 44.5358 312.97 42.583 312.883 40.7467C312.795 38.9105 312.65 36.6371 312.533 35.7044L312.358 34.043H308.219H304.08L302.885 36.5788ZM308.015 39.3477L307.928 41.7669L306.849 41.8543C305.946 41.9417 305.742 41.8543 305.742 41.4462C305.742 40.7467 307.52 36.9577 307.84 36.9577C307.986 36.9577 308.074 38.0361 308.015 39.3477Z" fill="#D81F30"/>
<path d="M319.907 34.3928C319.849 34.5968 319.586 35.7627 319.324 36.9577C319.062 38.1527 318.537 40.601 318.129 42.4081C317.721 44.186 317.4 45.7308 317.4 45.8182C317.4 45.9056 319.499 45.9931 322.064 45.9931C325.591 45.9931 326.727 45.9056 326.727 45.6142C326.727 45.4393 326.815 44.973 326.902 44.5941C327.077 43.982 327.019 43.9528 325.474 43.9528C324.57 43.9528 323.754 43.8071 323.667 43.6614C323.579 43.4865 323.9 41.5628 324.396 39.3477C324.891 37.1617 325.357 35.0632 325.416 34.6843C325.561 34.043 325.532 34.043 322.792 34.043C320.811 34.043 319.965 34.1596 319.907 34.3928Z" fill="#D81F30"/>
</svg>
